<svg xmlns="http://www.w3.org/2000/svg" width="700" height="700" viewBox="0 0 700 700" role="img" aria-labelledby="title desc">
  <title id="title">Atero Calc — Delta t</title>
  <desc id="desc">Símbolo Δt amarelo com a palavra CALC em cinza técnico abaixo.</desc>
  <rect width="700" height="700" fill="#ffffff"/>

  <!-- Símbolo oficial Δt, preservando geometria e espessuras. -->
  <path transform="translate(-34 -102)" d="M330.72 286.76L393.26 438H268.18Z" fill="none" stroke="#f2b705" stroke-width="24" stroke-linecap="butt" stroke-linejoin="miter"/>
  <path transform="translate(-34 -102)" fill="#f2b705" d="M507.60 450L461.40 450Q453.92 450 449.19 445.16Q444.46 440.32 444.46 432.84L444.46 367.28L412.12 367.28L412.12 340.88L444.46 340.88L444.46 296L472.18 296L472.18 340.88L511.56 340.88L511.56 367.28L472.18 367.28L472.18 417Q472.18 423.60 478.12 423.60L507.60 423.60Z"/>

  <!-- CALC em Space Mono regular, convertido integralmente em curvas. -->
  <g fill="#666b72" transform="translate(202.64 510)">
    <path d="M37.20 1.68Q23.40 1.68 15.54-7.14Q7.68-15.96 7.68-32.64L7.68-51.36Q7.68-67.56 15.54-76.62Q23.40-85.68 37.20-85.68Q46.80-85.68 53.40-81.60Q60-77.52 63.36-70.62Q66.72-63.72 66.72-55.20L66.72-53.76L56.64-53.76L56.64-55.20Q56.52-60.72 54.54-65.52Q52.56-70.32 48.30-73.32Q44.04-76.32 37.20-76.32Q27.48-76.32 22.62-69.24Q17.76-62.16 17.76-50.64L17.76-33.36Q17.76-21.12 22.62-14.40Q27.48-7.68 37.20-7.68Q44.04-7.68 48.36-10.68Q52.68-13.68 54.66-18.48Q56.64-23.28 56.64-28.80L56.64-30.24L66.72-30.24L66.72-28.80Q66.72-20.28 63.36-13.38Q60-6.48 53.40-2.40Q46.80 1.68 37.20 1.68Z"/>
    <path d="M86.04 0L75.24 0L100.68-84L119.64-84L145.08 0L134.28 0L128.16-20.88L92.16-20.88L86.04 0M109.44-79.68L94.92-30.24L125.40-30.24L110.88-79.68Z"/>
    <path d="M211.32 0L157.32 0L157.32-84L167.40-84L167.40-9.36L211.32-9.36Z"/>
    <path d="M257.52 1.68Q243.72 1.68 235.86-7.14Q228-15.96 228-32.64L228-51.36Q228-67.56 235.86-76.62Q243.72-85.68 257.52-85.68Q267.12-85.68 273.72-81.60Q280.32-77.52 283.68-70.62Q287.04-63.72 287.04-55.20L287.04-53.76L276.96-53.76L276.96-55.20Q276.84-60.72 274.86-65.52Q272.88-70.32 268.62-73.32Q264.36-76.32 257.52-76.32Q247.80-76.32 242.94-69.24Q238.08-62.16 238.08-50.64L238.08-33.36Q238.08-21.12 242.94-14.40Q247.80-7.68 257.52-7.68Q264.36-7.68 268.68-10.68Q273-13.68 274.98-18.48Q276.96-23.28 276.96-28.80L276.96-30.24L287.04-30.24L287.04-28.80Q287.04-20.28 283.68-13.38Q280.32-6.48 273.72-2.40Q267.12 1.68 257.52 1.68Z"/>
  </g>
</svg>
