<svg xmlns="http://www.w3.org/2000/svg" width="1200" height="800" viewBox="0 0 1200 800" role="img" aria-labelledby="title desc">
  <title id="title">Atero Aerospace — versão para fundo preto</title>
  <desc id="desc">Logotipo ΔtERO sobre fundo preto, com Delta t amarelo e os demais elementos brancos.</desc>
  <rect width="1200" height="800" fill="#000000"/>

  <!-- ΔtERO: cinco células monoespaçadas de 134,64 px e uma única altura tipográfica. -->
  <path d="M330.72 286.76L393.26 438H268.18Z" fill="none" stroke="#f2b705" stroke-width="24" stroke-linecap="butt" stroke-linejoin="miter"/>
  <path fill="#f2b705" d="M507.60 450L461.40 450Q453.92 450 449.19 445.16Q444.46 440.32 444.46 432.84L444.46 367.28L412.12 367.28L412.12 340.88L444.46 340.88L444.46 296L472.18 296L472.18 340.88L511.56 340.88L511.56 367.28L472.18 367.28L472.18 417Q472.18 423.60 478.12 423.60L507.60 423.60Z"/>
  <g fill="#ffffff">
    <path transform="matrix(.95 0 0 1 30 0)" d="M647.96 450L553.36 450L553.36 296L646.64 296L646.64 313.16L571.84 313.16L571.84 364.20L645.32 364.20L645.32 381.36L571.84 381.36L571.84 432.84L647.96 432.84Z"/>
    <path transform="matrix(.95 0 0 1 36.732 0)" d="M704.50 450L686.02 450L686.02 296L741.02 296Q756.86 296 767.31 301.83Q777.76 307.66 782.93 317.12Q788.10 326.58 788.10 337.80L788.10 344.40Q788.10 352.98 783.37 361.56Q778.64 370.14 768.74 374.76L768.74 377.40Q775.34 378.28 779.08 382.57Q782.82 386.86 782.82 394.56L782.82 450L764.34 450L764.34 398.52Q764.34 392.80 761.70 389.72Q759.06 386.64 752.46 386.64L704.50 386.64L704.50 450M704.50 313.16L704.50 369.48L738.82 369.48Q769.62 369.48 769.62 343.08L769.62 339.12Q769.62 327.46 762.03 320.31Q754.44 313.16 738.82 313.16Z"/>
    <path transform="matrix(.95 0 0 .961538 43.464 14.3462)" d="M869.28 453.08Q843.98 453.08 829.57 436.91Q815.16 420.74 815.16 390.16L815.16 355.84Q815.16 326.14 829.57 309.53Q843.98 292.92 869.28 292.92Q894.80 292.92 909.10 309.53Q923.40 326.14 923.40 355.84L923.40 390.16Q923.40 420.74 909.10 436.91Q894.80 453.08 869.28 453.08M869.28 435.92Q887.10 435.92 896.01 423.60Q904.92 411.28 904.92 388.84L904.92 357.16Q904.92 336.04 896.01 323.06Q887.10 310.08 869.28 310.08Q851.46 310.08 842.55 323.06Q833.64 336.04 833.64 357.16L833.64 388.84Q833.64 411.28 842.55 423.60Q851.46 435.92 869.28 435.92Z"/>
  </g>

  <!-- AEROSPACE: Rajdhani, vetorizada e distinta do lettering principal. -->
  <g fill="#ffffff">
    <path d="M382.40 570L377.79 570Q376.90 570 377.15 568.91L388.29 529.94Q388.61 528.85 389.82 528.85L396.22 528.85Q397.50 528.85 397.76 529.94L408.90 568.91Q409.15 570 408.19 570L403.65 570Q403.07 570 402.85 569.78Q402.62 569.55 402.50 568.91L400.06 560.59L385.98 560.59L383.55 568.91Q383.30 570 382.40 570M393.15 534.99L392.90 534.99L387.26 555.47L398.85 555.47Z"/>
    <path d="M454.80 570L434.32 570Q433.23 570 433.23 568.91L433.23 529.94Q433.23 528.85 434.32 528.85L454.80 528.85Q455.82 528.85 455.82 529.94L455.82 533.20Q455.82 534.29 454.80 534.29L440.21 534.29Q439.44 534.29 439.44 534.93L439.44 545.74Q439.44 546.38 440.21 546.38L452.56 546.38Q453.71 546.38 453.71 547.47L453.71 550.74Q453.71 551.82 452.56 551.82L440.21 551.82Q439.44 551.82 439.44 552.46L439.44 563.86Q439.44 564.56 440.21 564.56L454.80 564.56Q455.82 564.56 455.82 565.65L455.82 568.91Q455.82 570 454.80 570Z"/>
    <path d="M487.07 570L483.04 570Q481.95 570 481.95 568.91L481.95 529.94Q481.95 528.85 483.04 528.85L498.02 528.85Q502.69 528.85 505.34 531.50Q508 534.16 508 538.83L508 544.21Q508 551.57 501.92 553.49L501.92 553.74L509.02 568.72Q509.73 570 508.19 570L504.22 570Q502.69 570 502.24 568.91L495.39 554.19L488.93 554.19Q488.16 554.19 488.16 554.83L488.16 568.91Q488.16 570 487.07 570M488.86 549.07L496.99 549.07Q501.73 549.07 501.73 544.40L501.73 539.02Q501.73 534.29 496.99 534.29L488.86 534.29Q488.16 534.29 488.16 534.93L488.16 548.43Q488.16 549.07 488.86 549.07Z"/>
    <path d="M544.82 564.56L550.38 564.56Q555.06 564.56 555.06 559.82L555.06 539.02Q555.06 534.29 550.38 534.29L544.82 534.29Q540.21 534.29 540.21 539.02L540.21 559.82Q540.21 564.56 544.82 564.56M551.34 570L543.92 570Q539.18 570 536.59 567.38Q534 564.75 534 560.08L534 538.77Q534 534.03 536.59 531.44Q539.18 528.85 543.92 528.85L551.34 528.85Q556.08 528.85 558.70 531.44Q561.33 534.03 561.33 538.77L561.33 560.08Q561.33 564.75 558.70 567.38Q556.08 570 551.34 570Z"/>
    <path d="M587.20 560.02L587.20 558.35Q587.20 557.26 588.29 557.26L592.38 557.26Q593.47 557.26 593.47 558.35L593.47 559.50Q593.47 562.19 594.66 563.38Q595.84 564.56 598.59 564.56L603.01 564.56Q605.76 564.56 606.98 563.31Q608.19 562.06 608.19 559.25L608.19 557.78Q608.19 555.73 606.62 554.54Q605.06 553.36 602.75 553.01Q600.45 552.66 597.70 552.02Q594.94 551.38 592.64 550.54Q590.34 549.71 588.77 547.41Q587.20 545.10 587.20 541.52L587.20 538.83Q587.20 534.16 589.86 531.50Q592.51 528.85 597.18 528.85L603.97 528.85Q608.70 528.85 611.36 531.50Q614.02 534.16 614.02 538.83L614.02 540.24Q614.02 541.33 612.93 541.33L608.83 541.33Q607.74 541.33 607.74 540.24L607.74 539.41Q607.74 536.66 606.56 535.47Q605.38 534.29 602.62 534.29L598.59 534.29Q595.84 534.29 594.66 535.54Q593.47 536.78 593.47 539.79L593.47 541.78Q593.47 544.66 597.63 545.68Q599.49 546.13 601.70 546.45Q603.90 546.77 606.14 547.41Q608.38 548.05 610.24 549.10Q612.10 550.16 613.25 552.30Q614.40 554.45 614.40 557.52L614.40 560.02Q614.40 564.69 611.74 567.34Q609.09 570 604.42 570L597.25 570Q592.58 570 589.89 567.34Q587.20 564.69 587.20 560.02Z"/>
    <path d="M646.16 570L642.13 570Q641.04 570 641.04 568.91L641.04 529.94Q641.04 528.85 642.13 528.85L657.36 528.85Q662.03 528.85 664.66 531.44Q667.28 534.03 667.28 538.77L667.28 545.42Q667.28 550.10 664.66 552.72Q662.03 555.34 657.36 555.34L648.02 555.34Q647.25 555.34 647.25 555.98L647.25 568.91Q647.25 570 646.16 570M647.95 549.84L656.46 549.84Q661.01 549.84 661.01 545.10L661.01 539.02Q661.01 534.29 656.46 534.29L647.95 534.29Q647.25 534.29 647.25 534.93L647.25 549.20Q647.25 549.84 647.95 549.84Z"/>
    <path d="M695.07 570L690.46 570Q689.57 570 689.82 568.91L700.96 529.94Q701.28 528.85 702.50 528.85L708.90 528.85Q710.18 528.85 710.43 529.94L721.57 568.91Q721.82 570 720.86 570L716.32 570Q715.74 570 715.52 569.78Q715.30 569.55 715.17 568.91L712.74 560.59L698.66 560.59L696.22 568.91Q695.97 570 695.07 570M705.82 534.99L705.57 534.99L699.94 555.47L711.52 555.47Z"/>
    <path d="M762.61 570L755.18 570Q750.45 570 747.86 567.38Q745.26 564.75 745.26 560.08L745.26 538.77Q745.26 534.03 747.86 531.44Q750.45 528.85 755.18 528.85L762.61 528.85Q767.28 528.85 769.90 531.44Q772.53 534.03 772.53 538.77L772.53 541.84Q772.53 542.99 771.38 542.99L767.34 542.99Q766.26 542.99 766.26 541.84L766.26 539.02Q766.26 534.29 761.65 534.29L756.08 534.29Q751.47 534.29 751.47 539.02L751.47 559.82Q751.47 564.56 756.08 564.56L761.65 564.56Q766.26 564.56 766.26 559.82L766.26 557.01Q766.26 555.86 767.34 555.86L771.38 555.86Q772.53 555.86 772.53 557.01L772.53 560.08Q772.53 564.75 769.90 567.38Q767.28 570 762.61 570Z"/>
    <path d="M820.03 570L799.55 570Q798.46 570 798.46 568.91L798.46 529.94Q798.46 528.85 799.55 528.85L820.03 528.85Q821.06 528.85 821.06 529.94L821.06 533.20Q821.06 534.29 820.03 534.29L805.44 534.29Q804.67 534.29 804.67 534.93L804.67 545.74Q804.67 546.38 805.44 546.38L817.79 546.38Q818.94 546.38 818.94 547.47L818.94 550.74Q818.94 551.82 817.79 551.82L805.44 551.82Q804.67 551.82 804.67 552.46L804.67 563.86Q804.67 564.56 805.44 564.56L820.03 564.56Q821.06 564.56 821.06 565.65L821.06 568.91Q821.06 570 820.03 570Z"/>
  </g>
</svg>
